<svg width="1835" height="939" viewBox="0 0 1835 939" fill="none" xmlns="http://www.w3.org/2000/svg">
<path d="M142.136 1.5641C142.782 1.69907 143.429 1.83404 144.095 1.9731C147.986 2.83962 151.189 3.96959 154.603 6.0248C156.037 6.90765 156.037 6.90765 158.177 7.74006C166.082 11.1963 166.082 11.1963 168.393 14.6522C169.526 15.3131 170.662 15.9712 171.816 16.595C172.988 17.2699 172.988 17.2699 174.547 18.5378C176.505 20.0714 178.548 21.1866 180.744 22.3441C182.196 23.1697 183.489 24.0973 184.804 25.1227C184.634 27.2496 184.018 27.8685 182.47 29.4096C181.75 30.0195 181.023 30.6216 180.291 31.2169C179.908 31.5338 179.526 31.8506 179.133 32.1771C176.221 34.5491 173.176 36.5944 169.957 38.5355C168.546 39.4231 167.312 40.3546 166.054 41.442C164.454 42.7917 164.454 42.7917 163.141 42.7917C163.006 43.2101 162.871 43.6286 162.731 44.0597C161.829 45.4094 161.829 45.4094 160.054 45.9948C157.238 46.0845 155.923 45.0156 153.869 43.2825C153.319 42.8385 153.319 42.8385 152.757 42.3854C148.85 39.1934 145.131 35.7982 141.479 32.3212C140.944 31.8151 140.41 31.3089 139.859 30.7875C138.393 29.3662 136.974 27.9153 135.571 26.4316C135.097 25.9372 134.622 25.4429 134.133 24.9336C130.778 21.1513 129.396 17.6674 128.276 12.7555C127.7 10.7461 127.016 9.70972 125.725 8.10817C125.341 5.53817 125.498 4.52131 126.956 2.3412C130.846 -1.65101 137.262 0.427565 142.136 1.5641Z" fill="#AC1CA2"/>
<path d="M212.167 61.0295C214.3 61.7483 215.207 62.7501 216.713 64.4157C218.409 66.2027 219.894 67.7461 222.076 68.9001C224.675 70.3007 226.637 72.0302 228.821 73.996C229.365 74.4526 229.365 74.4526 229.92 74.9184C234.442 78.7402 238.533 83.031 242.686 87.246C243.622 88.1939 244.567 89.1345 245.512 90.0736C247.045 91.6295 248.502 93.2328 249.949 94.8688C251.543 96.6633 253.134 98.4247 254.865 100.087C256.125 101.392 256.125 101.392 256.125 102.696C256.688 102.938 256.688 102.938 257.262 103.185C259.503 104.435 260.938 105.932 262.212 108.161C263.307 109.922 264.456 111.142 265.957 112.562C275.765 122.177 275.765 122.177 277.496 128.135C278.39 130.526 279.603 131.651 281.478 133.353C283.591 135.276 284.794 137.096 286.029 139.672C286.361 140.358 286.693 141.044 287.035 141.751C288.081 144.009 289.078 146.284 290.021 148.587C290.512 149.785 290.512 149.785 291.88 150.312C292.196 151.491 292.196 151.491 292.411 153.023C292.491 153.583 292.572 154.143 292.656 154.72C292.735 155.31 292.814 155.901 292.896 156.509C292.977 157.079 293.059 157.649 293.143 158.236C293.66 161.893 294.09 165.556 294.48 169.228C294.695 169.228 294.909 169.228 295.13 169.228C295.345 173.318 295.559 177.408 295.78 181.621C296.209 181.621 296.639 181.621 297.081 181.621C297.85 186.855 298.566 191.97 298.381 197.276C298.81 197.276 299.239 197.276 299.681 197.276C299.784 197.918 299.887 198.559 299.993 199.22C303.324 221.433 303.324 221.433 312.033 241.631C312.973 244.849 313.483 247.919 313.803 251.249C313.975 252.651 314.253 253.959 314.593 255.329C315.423 258.816 315.76 262.359 316.13 265.919C316.368 268.534 316.368 268.534 317.234 270.983C317.395 273.997 317.354 277.016 317.355 280.034C317.363 280.864 317.371 281.695 317.38 282.551C317.387 287.744 316.977 292.638 315.933 297.727C315.504 297.727 315.075 297.727 314.633 297.727C314.7 298.413 314.767 299.099 314.836 299.806C314.836 303.208 313.596 305.966 312.315 309.073C311.647 310.758 311.053 312.398 310.512 314.123C310.371 314.57 310.231 315.016 310.087 315.477C309.817 316.35 309.553 317.226 309.295 318.103C308.919 319.303 308.919 319.303 308.132 321.209C307.489 321.424 306.845 321.639 306.182 321.861C305.701 323.148 305.28 324.459 304.882 325.774C304.069 327.756 303.181 329.701 302.281 331.645C302.08 332.084 301.879 332.523 301.672 332.975C300.305 335.844 298.673 338.41 296.885 341.032C295.577 343.047 294.395 345.123 293.221 347.218C289.531 353.768 285.44 359.954 281.044 366.045C280.044 367.435 279.088 368.836 278.139 370.264C276.762 372.335 275.341 374.154 273.677 376C273.248 376 272.819 376 272.377 376C272.22 376.357 272.064 376.714 271.902 377.083C270.884 378.966 269.633 380.503 268.273 382.156C267.78 382.76 267.286 383.365 266.778 383.988C265.246 385.76 263.648 387.407 261.975 389.045C261.162 389.847 260.35 390.648 259.538 391.45C259.152 391.83 258.767 392.209 258.369 392.6C257.362 393.582 257.362 393.582 256.775 394.916C254.906 395.071 253.841 395.115 252.229 394.1C244.931 387.295 244.931 387.295 242.97 383.633C241.327 381.109 239.2 379.245 236.987 377.223C236.553 376.818 236.118 376.414 235.671 375.997C233.239 373.744 233.239 373.744 230.626 371.712C230.245 371.405 229.863 371.098 229.471 370.781C229.471 370.351 229.471 369.92 229.471 369.477C229.103 369.322 228.736 369.167 228.357 369.007C226.543 367.989 225.335 366.756 223.886 365.26C223.323 364.685 222.759 364.109 222.179 363.516C221.002 362.301 219.825 361.087 218.649 359.872C217.802 359.008 217.802 359.008 216.939 358.126C216.172 357.334 216.172 357.334 215.39 356.526C213.882 355.14 212.388 354.183 210.618 353.17C209.724 352.343 208.856 351.486 208.018 350.602C206.631 349.169 205.323 347.878 203.751 346.647C202.377 345.516 201.36 344.45 200.216 343.101C197.991 340.492 195.634 338.038 193.228 335.599C192.859 335.221 192.49 334.843 192.11 334.453C189.953 332.28 189.953 332.28 187.214 330.993C187.531 328.228 188.189 327.136 190.343 325.408C190.816 325.018 191.288 324.629 191.775 324.228C192.201 323.877 192.627 323.527 193.065 323.165C193.508 322.708 193.95 322.251 194.406 321.779C195.666 320.556 195.666 320.556 197.738 319.211C200.578 317.244 202.471 314.592 204.589 311.893C206.283 309.861 208.12 308.215 210.148 306.532C211.592 305.271 212.708 303.815 213.868 302.293C214.297 302.077 214.727 301.862 215.169 301.64C215.343 301.156 215.517 300.672 215.697 300.173C216.653 297.952 217.981 296.779 219.719 295.117C220.162 294.552 220.604 293.987 221.06 293.405C222.32 291.856 222.32 291.856 223.742 291C225.294 289.55 225.632 288.12 225.809 286.026C225.411 283.785 223.977 282.871 222.21 281.578C221.621 281.177 221.621 281.177 221.019 280.767C220.376 280.223 220.376 280.223 219.719 279.667C218.354 278.699 218.354 278.699 216.347 278.036C211.484 276.03 207.89 271.626 204.564 267.686C202.789 265.633 200.851 263.751 198.916 261.851C197.833 260.764 196.749 259.677 195.666 258.59C195.143 258.106 195.143 258.106 194.609 257.612C193.715 256.633 193.715 256.633 192.822 255.084C191.805 253.291 191.805 253.291 190.181 251.782C186.031 247.619 186.031 247.619 185.808 244.902C186.055 241.762 187.021 240.058 189.165 237.717C189.587 236.971 189.587 236.971 190.018 236.209C192.572 232.127 195.946 228.881 199.594 225.788C200.81 224.721 201.91 223.604 203.02 222.43C205.414 219.978 208.119 218.061 210.91 216.09C212.658 214.87 212.658 214.87 214.437 213.175C217.095 211.149 219.957 209.956 223.018 208.645C224.747 207.797 225.593 207.131 226.87 205.756C228.038 205.109 228.038 205.109 229.308 204.533C231.556 203.453 233.507 202.205 235.492 200.698C236.622 199.885 236.622 199.885 238.072 199.098C241.102 197.13 243.558 194.515 246.145 192.004C246.564 191.603 246.983 191.202 247.414 190.789C247.792 190.422 248.17 190.056 248.559 189.678C249.624 188.797 249.624 188.797 251.574 188.144C252.017 187.28 252.449 186.409 252.874 185.535C253.863 184.383 254.882 183.258 255.921 182.151C258.776 179.051 261.429 175.885 263.926 172.49C264.408 171.844 264.891 171.198 265.388 170.533C266.64 168.38 267.367 166.294 268.078 163.916C268.476 162.705 268.476 162.705 269.126 162.053C269.633 156.859 268.752 153.739 265.632 149.538C262.422 146.086 259.317 145.277 254.824 144.442C254.824 144.011 254.824 143.581 254.824 143.137C244.056 142.823 234.413 143.182 224.92 149.008C224.491 149.438 224.062 149.869 223.62 150.312C222.762 150.312 221.904 150.312 221.019 150.312C220.963 149.657 220.907 149.002 220.849 148.327C220.252 142.209 218.938 137.066 216.469 131.396C216.198 130.702 215.927 130.007 215.649 129.292C214.492 126.34 213.391 123.618 211.471 121.082C209.968 119.003 209.968 119.003 209.358 116.802C208.575 114.12 207.379 112.315 205.793 110.047C204.831 108.659 203.962 107.246 203.101 105.794C201.496 103.19 199.539 101.168 197.21 99.1902C196.316 98.1302 196.316 98.1302 195.513 96.0409C194.388 93.3446 192.721 91.4832 190.709 89.406C190.382 89.0588 190.055 88.7115 189.718 88.3537C188.679 87.2521 187.633 86.1574 186.564 85.0847C186.328 83.6298 186.328 83.6298 186.564 81.8233C187.877 80.1187 187.877 80.1187 189.693 78.3581C190.013 78.0464 190.333 77.7347 190.662 77.4136C193.352 74.8519 196.276 72.7111 199.322 70.5919C200.695 69.5592 201.684 68.6144 202.735 67.2694C204.173 65.445 205.359 64.6677 207.367 63.5596C207.904 63.0753 208.44 62.591 208.993 62.092C210.618 60.9505 210.618 60.9505 212.167 61.0295Z" fill="#AC1CA2"/>
<path d="M115.831 411.126C117.213 412.471 117.213 412.471 118.58 414.318C121.129 417.622 123.855 420.51 126.884 423.378C128.311 424.883 129.211 426.38 130.274 428.15C131.231 429.16 132.217 430.142 133.229 431.097C134.8 432.581 136.067 433.851 137.18 435.706C138.238 437.46 139.345 438.531 140.901 439.855C141.425 440.308 141.949 440.76 142.489 441.226C143.459 442.047 144.432 442.866 145.407 443.682C148.987 446.715 152.306 450.006 155.221 453.688C155.221 454.12 155.221 454.552 155.221 454.997C155.619 455.06 156.017 455.122 156.427 455.187C158.182 455.762 158.558 456.344 159.571 457.862C161.783 460.998 164.358 463.728 166.99 466.51C168.352 468.094 168.352 468.094 169.008 470.058C170.141 471.022 171.309 471.944 172.496 472.841C175.541 475.255 177.14 477.111 178.856 480.535C179.438 481.102 180.02 481.669 180.62 482.254C182.268 483.942 182.733 484.747 182.795 487.083C182.361 487.731 181.928 488.379 181.482 489.047C181.048 489.047 180.615 489.047 180.169 489.047C180.12 489.422 180.072 489.797 180.023 490.183C179.33 492.197 178.204 493.066 176.599 494.449C176.072 494.912 175.545 495.375 175.001 495.851C173.604 496.905 173.604 496.905 172.291 496.905C172.221 497.289 172.152 497.673 172.08 498.069C171.572 499.727 170.904 500.574 169.747 501.857C169.41 502.236 169.073 502.615 168.726 503.005C168.386 503.369 168.046 503.733 167.695 504.108C167.355 504.478 167.015 504.849 166.664 505.231C165.726 506.072 165.726 506.072 164.413 506.072C164.24 506.453 164.067 506.834 163.889 507.226C163.061 508.763 162.138 509.895 160.966 511.188C159.428 512.896 157.923 514.619 156.452 516.385C155.33 517.7 154.332 518.698 152.965 519.782C150.997 521.362 149.461 523.142 147.833 525.062C146.687 526.371 146.687 526.371 145.417 527.601C143.805 529.252 142.477 531.023 141.107 532.878C136.71 538.818 131.876 543.769 126.448 548.755C123.045 551.89 119.87 554.889 117.267 558.743C115.25 561.58 113.341 563.397 110.482 565.329C109.101 566.448 108.377 567.54 107.461 569.056C105.303 572.559 102.422 575.036 99.3543 577.722C97.4223 579.392 97.4223 579.392 95.6461 581.262C94.1664 582.684 94.1664 582.684 92.8534 582.684C92.679 583.166 92.5047 583.647 92.3251 584.142C90.3528 588.707 86.8086 592.116 83.0314 595.243C81.5576 596.556 80.3089 597.966 79.0257 599.464C77.4529 601.282 75.9721 602.781 73.9788 604.129C71.4208 605.896 69.8841 607.708 68.3575 610.391C65.7843 614.478 63.4754 617.374 58.715 618.699C57.9214 620.008 57.9214 620.008 57.402 621.318C56.7521 621.534 56.1021 621.75 55.4325 621.973C55.4325 622.405 55.4325 622.837 55.4325 623.282C54.7826 623.714 54.1326 624.147 53.463 624.592C53.2463 625.24 53.0297 625.888 52.8065 626.556C50.209 628.004 47.8618 628.185 44.9284 627.866C42.8358 626.438 42.382 625.591 41.81 623.119C41.7558 622.524 41.7017 621.93 41.6459 621.318C41.2126 621.318 40.7793 621.318 40.3328 621.318C40.2211 620.906 40.1094 620.494 39.9943 620.07C38.3737 613.838 38.3737 613.838 34.7756 608.657C31.3846 604.99 30.2776 598.594 29.1722 593.816C28.9556 593.6 28.7389 593.384 28.5157 593.161C28.489 592.07 28.4877 590.978 28.5157 589.887C28.0824 589.887 27.6491 589.887 27.2027 589.887C26.0072 587.126 24.8336 584.356 23.674 581.579C23.393 580.908 23.1121 580.237 22.8226 579.546C22.234 578.128 21.6529 576.708 21.0787 575.285C20.7978 574.593 20.5168 573.902 20.2273 573.19C19.9751 572.562 19.723 571.934 19.4631 571.287C18.7382 569.586 18.7382 569.586 17.6629 568.253C16.5723 566.801 16.0578 565.491 15.4677 563.777C15.2468 563.147 15.0259 562.518 14.7983 561.869C14.5588 561.175 14.3193 560.481 14.0726 559.766C11.9906 553.732 11.9906 553.732 9.60013 547.816C8.82053 546.015 8.82053 546.015 8.82053 544.706C8.38724 544.706 7.95395 544.706 7.50752 544.706C-1.09149 525.107 -1.0915 525.107 1.54254 517.416C3.0715 514.152 5.39661 512.209 8.16403 510.001C8.73273 509.252 8.73273 509.252 9.31291 508.487C10.6528 506.891 11.8419 505.874 13.4981 504.64C16.5778 502.336 19.1927 499.708 21.843 496.931C23.2637 495.595 23.2637 495.595 25.2332 494.941C27.152 493.182 28.8317 491.294 30.4852 489.293C32.083 487.404 33.6031 486.386 35.7373 485.118C38.9119 482.247 41.7397 479.066 44.5386 475.836C46.6769 473.395 48.5367 471.427 51.4935 470.058C51.7101 469.626 51.9268 469.194 52.15 468.748C52.5833 468.748 53.0165 468.748 53.463 468.748C53.6111 468.271 53.7592 467.795 53.9118 467.303C54.9608 465.083 56.2292 463.986 58.0996 462.405C60.3703 460.592 60.3703 460.592 61.9976 458.271C62.4309 458.271 62.8641 458.271 63.3106 458.271C63.3106 457.839 63.3106 457.407 63.3106 456.962C64.4015 456.302 65.4963 455.648 66.5931 454.997C67.6733 454.016 68.7224 453 69.7449 451.959C70.3326 451.365 70.9203 450.772 71.5259 450.161C72.1386 449.536 72.7511 448.911 73.3633 448.286C78.896 442.662 84.4966 437.475 90.7531 432.665C92.2385 431.48 92.2385 431.48 93.2919 429.959C93.5805 429.578 93.869 429.197 94.1664 428.805C94.5997 428.805 95.033 428.805 95.4794 428.805C95.52 428.427 95.5606 428.049 95.6025 427.659C96.3539 425.584 97.6627 424.88 99.4184 423.567C100.528 422.491 101.619 421.396 102.701 420.293C103.699 419.296 104.697 418.3 105.696 417.305C106.185 416.818 106.673 416.331 107.176 415.829C107.886 415.122 107.886 415.122 108.61 414.4C109.309 413.682 109.309 413.682 110.023 412.949C111.913 411.127 113.229 410.764 115.831 411.126Z" fill="#AC1CA2"/>
<path d="M236.365 6.03318C237.089 6.02223 237.813 6.01128 238.56 6C240.87 6.26457 242.068 6.81554 243.915 8.19754C245.525 10.6015 245.404 11.8713 245.392 14.7315C245.396 15.54 245.399 16.3486 245.402 17.1817C245.228 19.3052 245.228 19.3052 243.915 21.2654C243.482 21.2654 243.048 21.2654 242.602 21.2654C242.534 21.6158 242.466 21.9662 242.397 22.3272C241.409 25.7211 239.868 27.9844 237.349 30.4129C236.862 31.2619 236.862 31.2619 236.365 32.128C235.266 33.8592 234.548 34.1223 232.754 34.9866C232.091 36.1405 232.091 36.1405 231.44 37.6002C229.744 40.1955 227.965 42.8342 225.531 44.7875C224.665 44.7875 223.798 44.7875 222.905 44.7875C222.689 45.4344 222.472 46.0812 222.249 46.7477C221.815 46.7477 221.382 46.7477 220.936 46.7477C220.719 47.3946 220.502 48.0414 220.279 48.7079C219.203 49.3905 218.103 50.0365 216.996 50.668C216.194 51.2456 215.401 51.8345 214.614 52.4317C214.192 52.7496 213.77 53.0676 213.335 53.3952C212.46 54.0586 211.588 54.7257 210.719 55.3962C210.298 55.7116 209.877 56.0271 209.443 56.3521C209.065 56.6407 208.687 56.9293 208.298 57.2267C207.148 57.8554 207.148 57.8554 204.522 57.8554C204.305 58.5022 204.088 59.1491 203.865 59.8155C203.432 59.8155 202.999 59.8155 202.552 59.8155C202.335 60.4624 202.119 61.1093 201.896 61.7757C201.462 61.7757 201.029 61.7757 200.582 61.7757C200.366 62.4226 200.149 63.0694 199.926 63.7359C198.472 64.8589 198.472 64.8589 196.684 66.0228C194.597 67.3854 193.447 68.1799 192.047 70.2698C191.614 70.2698 191.181 70.2698 190.734 70.2698C190.707 70.6337 190.68 70.9975 190.652 71.3724C189.951 73.2156 188.885 73.8827 187.356 75.0682C185.257 76.933 183.613 79.178 181.863 81.3622C180.185 83.391 178.425 85.3036 176.618 87.2172C173.139 90.9385 170.073 94.8872 167.098 99.0191C166.775 99.4622 166.452 99.9054 166.119 100.362C165.059 101.817 164.005 103.276 162.954 104.736C162.623 105.192 162.292 105.647 161.951 106.116C160.096 108.719 158.549 111.321 157.164 114.199C156.455 115.634 155.618 116.938 154.706 118.253C154.372 118.743 154.037 119.232 153.693 119.736C152.995 120.743 152.296 121.748 151.595 122.753C149.606 125.646 148.009 128.394 146.745 131.689C146.57 132.097 146.395 132.506 146.214 132.927C142.235 142.533 142.988 155.931 146.089 165.665C146.522 165.665 146.955 165.665 147.402 165.665C147.402 166.096 147.402 166.528 147.402 166.972C147.835 166.972 148.268 166.972 148.715 166.972C148.823 167.592 148.931 168.212 149.043 168.85C150.45 173.808 154.902 177.895 158.563 181.347C159.355 182.357 159.355 182.357 160.163 183.388C165.049 188.128 174.088 187.532 180.472 187.506C185.128 187.383 189.118 186.596 193.36 184.613C193.863 184.379 194.366 184.145 194.884 183.904C195.77 183.471 196.65 183.024 197.52 182.559C198.613 182 198.613 182 200.295 181.469C204.969 179.203 207.566 174.656 210.115 170.343C210.436 169.878 210.757 169.412 211.087 168.932C211.521 168.932 211.954 168.932 212.4 168.932C212.482 168.568 212.563 168.204 212.647 167.829C213.725 163.86 214.809 162.713 218.309 160.438C218.611 159.927 218.912 159.415 219.222 158.889C221.076 155.875 224.032 154.034 226.845 151.944C227.23 151.657 227.615 151.369 228.011 151.074C234.714 146.35 244.554 146.74 252.45 147.37C257.112 148.307 260.823 150.688 263.611 154.557C264.912 158.331 265.094 162.581 263.404 166.219C261.197 169.712 258.641 172.951 256.053 176.17C255.008 177.462 255.008 177.462 254.05 179.141C252.69 181.379 251.059 183.447 249.167 185.267C248.734 185.267 248.301 185.267 247.854 185.267C247.61 185.847 247.61 185.847 247.362 186.438C246.412 188.107 245.454 188.899 243.915 190.045C243.39 190.438 242.865 190.831 242.325 191.237C240.628 192.457 238.911 193.643 237.185 194.823C235.367 196.069 233.705 197.277 232.179 198.866C230.849 200.228 229.942 200.972 228.158 201.602C227.291 201.602 226.424 201.602 225.531 201.602C225.315 202.249 225.098 202.895 224.875 203.562C223.249 204.473 223.249 204.473 221.182 205.4C218.184 206.821 215.891 208.259 213.483 210.504C211.925 211.797 210.201 212.557 208.369 213.398C206.684 214.251 205.319 215.438 203.865 216.63C203.432 216.63 202.999 216.63 202.552 216.63C202.417 217.021 202.281 217.411 202.142 217.814C200.912 219.76 199.342 220.209 197.3 221.203C197.083 221.85 196.866 222.497 196.643 223.164C195.545 224.172 195.545 224.172 194.181 225.246C191.84 227.21 190.312 229.135 188.834 231.79C188.108 232.965 188.108 232.965 187.131 233.922C185.967 235.097 185.337 236.277 184.579 237.742C183.553 239.646 182.526 241.307 181.091 242.929C179.64 244.646 179.072 245.944 178.26 247.993C177.384 248.864 176.509 249.735 175.633 250.606C174.998 251.724 174.363 252.843 173.743 253.97C172.44 256.112 170.743 257.897 169.068 259.754C168.739 260.141 168.409 260.528 168.07 260.928C165.642 263.774 163.074 266.478 160.451 269.146C160.12 269.489 159.79 269.831 159.45 270.184C157.504 272.138 155.867 273.16 153.311 274.128C153.094 274.775 152.877 275.422 152.654 276.088C150.438 277.809 148.226 279.289 145.76 280.621C143.193 282.079 140.678 283.515 138.866 285.889C138.54 288.328 138.514 288.992 139.523 291.116C140.868 292.865 142.316 294.43 143.855 296.012C145.281 297.493 146.531 298.996 147.771 300.631C149.801 303.296 152.006 305.756 154.293 308.204C155.28 309.411 155.28 309.411 155.28 310.718C155.841 310.956 155.841 310.956 156.414 311.198C158.19 312.182 159.362 313.348 160.776 314.799C161.316 315.346 161.855 315.893 162.411 316.457C163.536 317.611 164.661 318.764 165.786 319.918C166.327 320.466 166.867 321.014 167.424 321.578C167.913 322.08 168.401 322.581 168.905 323.098C170.399 324.456 171.93 325.376 173.664 326.4C174.112 327.266 174.551 328.136 174.977 329.013C175.841 329.471 176.719 329.903 177.603 330.32C181.045 332.344 183.549 333.949 185.482 337.507C186.203 337.929 186.203 337.929 186.939 338.358C189.09 339.665 190.769 341.275 192.532 343.043C192.877 343.385 193.222 343.728 193.578 344.08C194.302 344.8 195.024 345.521 195.744 346.243C196.852 347.352 197.966 348.454 199.081 349.556C199.784 350.257 200.488 350.958 201.19 351.66C201.525 351.99 201.859 352.32 202.204 352.66C204.522 354.999 204.522 354.999 204.522 356.456C204.876 356.6 205.229 356.744 205.594 356.892C207.67 358.055 209.289 359.613 211.005 361.234C211.374 361.577 211.744 361.921 212.124 362.275C212.909 363.007 213.693 363.739 214.476 364.473C216.081 365.976 217.694 367.472 219.309 368.966C220.066 369.667 220.822 370.369 221.578 371.072C223.49 372.846 225.429 374.578 227.411 376.274C230.403 378.866 233.175 381.656 235.954 384.47C236.936 385.463 237.919 386.455 238.904 387.446C239.331 387.879 239.758 388.312 240.198 388.757C241.244 389.835 241.244 389.835 242.602 390.432C242.602 390.863 242.602 391.295 242.602 391.739C242.989 391.911 243.377 392.083 243.776 392.26C245.291 393.08 246.257 393.929 247.454 395.156C247.863 395.571 248.272 395.986 248.694 396.413C249.334 397.071 249.334 397.071 249.988 397.742C252.948 400.739 255.905 403.661 259.134 406.374C261.111 408.105 262.924 409.999 264.773 411.864C266.54 413.598 268.396 415.203 270.274 416.815C273.147 419.318 275.45 421.772 277.399 425.062C278.927 426.742 280.279 428.096 282.251 429.235C286.675 431.957 290.13 436.356 293.48 440.269C294.909 441.898 296.111 443.166 298.004 444.268C302.678 447.122 306.387 451.84 309.916 455.973C311.826 458.155 313.633 459.516 316.136 460.998C318.754 462.85 320.703 465.029 322.778 467.438C326.022 471.115 329.6 474.399 333.316 477.594C334.899 478.971 336.383 480.362 337.802 481.907C337.802 482.338 337.802 482.77 337.802 483.214C338.372 483.3 338.372 483.3 338.953 483.387C340.826 483.997 341.662 484.901 343.013 486.317C343.472 486.792 343.931 487.266 344.403 487.754C345.036 488.418 345.036 488.418 345.681 489.094C346.236 489.647 346.791 490.199 347.363 490.769C348.246 491.647 349.127 492.527 349.999 493.415C353.346 496.798 356.902 499.894 360.535 502.966C361.117 503.469 361.7 503.972 362.3 504.49C363.108 505.178 363.108 505.178 363.933 505.881C367.348 509.449 367.694 512.774 367.58 517.507C367.042 522.806 365.208 527.655 362.674 532.313C361.686 534.38 361.262 536.521 360.781 538.752C360.348 538.752 359.915 538.752 359.468 538.752C359.414 539.345 359.36 539.938 359.304 540.549C358.812 542.672 358.812 542.672 357.54 543.857C355.536 545.972 355.33 548.359 354.872 551.167C354.439 551.167 354.006 551.167 353.559 551.167C353.432 551.87 353.432 551.87 353.303 552.588C352.389 556.803 350.761 560.81 348.717 564.602C346.832 568.197 345.635 571.983 344.404 575.836C344.247 576.325 344.09 576.814 343.929 577.318C343.792 577.755 343.654 578.193 343.513 578.643C342.194 582.304 342.194 582.304 340.428 583.183C339.953 584.486 339.539 585.811 339.156 587.144C336.426 596.354 336.426 596.354 334.519 599.518C334.086 599.733 333.653 599.949 333.206 600.171C332.631 601.679 332.124 603.165 331.647 604.704C331.357 605.601 331.065 606.498 330.772 607.394C330.629 607.834 330.485 608.275 330.337 608.728C328.732 613.553 327.026 618.083 323.358 621.733C321.136 622.099 319.016 622.079 316.792 621.733C315.315 620.385 315.315 620.385 314.166 618.466C313.465 617.654 312.754 616.851 312.032 616.057C310.227 614.051 310.227 614.051 310.227 612.586C309.793 612.586 309.36 612.586 308.914 612.586C308.751 612.073 308.589 611.561 308.421 611.034C307.797 609.266 307.797 609.266 306.459 608.775C304.417 607.725 302.983 606.168 301.404 604.541C301.099 604.231 300.794 603.922 300.48 603.603C299.569 602.678 298.66 601.751 297.752 600.824C297.217 600.317 296.681 599.809 296.129 599.285C294.807 597.909 293.743 596.607 292.631 595.074C290.421 592.075 287.841 589.555 285.155 586.981C282.387 584.326 279.951 581.967 278.056 578.609C276.892 577.454 276.892 577.454 275.594 576.445C273.308 574.526 271.393 572.491 269.464 570.225C268.015 568.592 266.483 567.071 264.925 565.541C262.544 563.201 260.305 560.8 258.131 558.27C257.021 557.019 255.861 555.848 254.666 554.679C252.256 552.312 249.945 549.942 248.285 546.978C247.079 545.102 245.782 543.908 244.079 542.468C241.645 540.345 239.507 538.193 237.431 535.73C235.097 533.134 232.569 530.725 230.052 528.305C227.938 526.242 226.346 524.342 224.875 521.764C224.095 520.935 223.288 520.129 222.454 519.355C221.215 518.203 221.215 518.203 220.279 517.19C220.279 516.759 220.279 516.328 220.279 515.883C219.91 515.728 219.541 515.573 219.161 515.414C217.312 514.387 216.025 513.13 214.534 511.636C214.009 511.118 213.485 510.599 212.944 510.064C211.744 508.696 211.744 508.696 211.744 507.389C211.094 507.174 210.444 506.958 209.774 506.736C209.102 505.657 208.447 504.566 207.805 503.469C206.904 502.502 205.972 501.563 205.014 500.651C202.289 498 199.784 495.233 197.3 492.361C193.585 488.124 189.714 484.096 185.648 480.194C182.926 477.544 182.926 477.544 182.199 475.373C181.111 474.357 179.954 473.472 178.778 472.56C177.603 471.453 177.603 471.453 176.711 469.924C175.612 468.152 174.458 466.866 172.97 465.408C172.438 464.882 171.905 464.356 171.357 463.815C170.784 463.256 170.212 462.697 169.622 462.121C169.032 461.539 168.442 460.957 167.834 460.357C165.95 458.499 164.063 456.644 162.174 454.791C159.688 452.352 157.206 449.908 154.726 447.461C154.154 446.902 153.581 446.343 152.992 445.767C152.459 445.242 151.927 444.716 151.378 444.175C150.91 443.716 150.442 443.257 149.96 442.785C148.649 441.323 147.727 439.823 146.745 438.13C145.735 436.933 144.692 435.765 143.626 434.618C143.32 434.287 143.014 433.956 142.698 433.616C139.562 430.265 136.289 427.048 132.984 423.863C130.835 421.765 129.194 419.846 127.705 417.221C126.914 416.363 126.092 415.532 125.243 414.73C123.557 413.097 121.956 411.458 120.442 409.666C116.911 405.573 112.967 401.85 109.117 398.058C107.119 396.089 105.132 394.11 103.159 392.117C102.411 391.364 102.411 391.364 101.648 390.595C101.145 390.087 100.641 389.578 100.122 389.054C98.908 387.784 98.908 387.784 97.5037 387.165C97.2134 386.673 96.9231 386.181 96.624 385.675C95.1095 383.206 93.0898 381.47 90.9766 379.508C89.5726 377.96 88.9997 376.699 88.3119 374.751C87.6695 374.084 87.0121 373.43 86.3423 372.79C85.6815 371.704 85.0253 370.615 84.3726 369.524C83.9528 369.011 83.533 368.499 83.1005 367.972C81.785 366.305 80.7675 364.647 79.7434 362.798C79.1835 361.796 78.5799 360.819 77.9712 359.845C77.1505 358.416 77.1505 358.416 77.1505 357.109C76.7629 356.954 76.3753 356.799 75.9759 356.639C74.2013 355.616 73.4522 354.551 72.3085 352.862C71.9124 352.277 71.5163 351.693 71.1082 351.091C69.656 348.848 68.2628 346.577 66.9098 344.273C66.0849 342.894 65.2067 341.574 64.3067 340.243C62.4511 337.337 61.3894 334.166 60.1981 330.948C59.3218 328.759 58.1369 327.032 56.7974 325.093C53.4404 318.81 51.4037 312.335 49.5753 305.491C49.379 304.758 49.1826 304.026 48.9803 303.271C48.0605 299.71 47.2642 296.137 46.5747 292.525C46.314 291.13 46.314 291.13 45.9335 289.84C44.465 283.238 45.3938 273.838 46.9414 267.319C47.6442 264.353 47.9039 261.438 48.1391 258.406C48.6833 252.394 50.2195 247.149 52.2015 241.459C52.6542 239.938 53.0893 238.413 53.5146 236.885C54.076 234.868 54.6376 232.852 55.1996 230.836C55.6096 229.364 56.0182 227.893 56.4255 226.42C56.6227 225.715 56.8199 225.009 57.0231 224.282C57.2004 223.643 57.3777 223.005 57.5604 222.348C58.1105 220.55 58.1105 220.55 58.8119 218.839C59.6774 216.637 59.8465 214.39 60.0802 212.056C60.5613 207.25 60.5613 207.25 61.3739 205.299C62.1423 203.324 62.4402 201.504 62.7295 199.407C62.8407 198.624 62.952 197.842 63.0667 197.036C63.178 196.225 63.2893 195.413 63.404 194.578C63.6281 192.961 63.8545 191.344 64.0836 189.728C64.1818 189.013 64.28 188.299 64.3813 187.562C64.676 185.92 64.676 185.92 65.3326 185.267C65.5341 183.742 65.7061 182.222 65.866 180.693C66.478 175.385 67.5968 170.287 68.9138 165.113C69.2833 163.66 69.6439 162.205 70.0028 160.749C71.7517 153.688 71.7517 153.688 72.5547 151.29C73.2046 151.29 73.8546 151.29 74.5243 151.29C74.6437 150.569 74.6437 150.569 74.7654 149.833C74.9304 148.877 74.9304 148.877 75.0988 147.901C75.2054 147.272 75.3121 146.643 75.4219 145.994C76.4414 141.354 76.4414 141.354 78.3816 139.938C80.416 138.39 81.1939 136.548 82.403 134.302C82.8363 133.655 83.2696 133.009 83.7161 132.342C84.1494 132.342 84.5827 132.342 85.0292 132.342C84.975 131.87 84.9208 131.399 84.865 130.913C85.0799 128.507 86.1037 127.625 87.6554 125.808C87.872 125.269 88.0887 124.73 88.3119 124.175C89.0971 122.221 90.2432 120.88 91.5947 119.274C91.8113 118.843 92.028 118.412 92.2512 117.967C92.7116 117.738 93.1721 117.509 93.6464 117.273C95.9569 115.724 97.2375 113.9 98.8911 111.694C100.474 109.691 102.25 107.963 104.082 106.189C106.774 103.52 109.214 100.628 111.579 97.6715C113.338 95.6643 115.228 94.0229 117.262 92.3014C118.651 91.1083 118.651 91.1083 120.155 89.2182C121.885 87.152 123.747 85.5036 125.797 83.7639C126.798 82.9002 127.753 81.9832 128.69 81.0508C130.494 79.2551 132.396 77.6126 134.327 75.9538C135.36 75.0411 136.342 74.0711 137.307 73.0876C139.009 71.4382 140.832 70.2725 142.806 68.963C143.28 68.4779 143.754 67.9927 144.242 67.4929C146.521 65.275 149.036 63.5548 151.654 61.7527C153.202 60.5534 154.132 59.4106 155.28 57.8554C155.714 57.8554 156.147 57.8554 156.593 57.8554C156.753 57.4772 156.912 57.099 157.076 56.7094C158.059 54.9729 159.18 53.9659 160.697 52.6691C161.223 52.2159 161.75 51.7628 162.292 51.2959C163.534 50.2511 164.779 49.2101 166.031 48.177C167.678 46.8651 167.678 46.8651 168.74 45.7268C169.857 44.661 171.095 43.9007 172.389 43.0647C176.631 40.1001 180.551 36.713 184.169 33.0265C185.482 31.7197 185.482 31.7197 186.987 31.1607C189.102 30.2707 190.514 29.0845 192.252 27.5951C195.864 24.5893 199.288 22.055 203.66 20.2853C205.888 19.44 205.888 19.44 207.353 17.7534C209.806 15.3687 212.604 14.2069 215.683 12.7713C216.532 12.3234 217.38 11.8743 218.227 11.4237C221.031 10.0203 223.969 9.0941 226.955 8.1516C228.796 7.58515 228.796 7.58515 230.427 6.82695C232.474 6.10438 234.196 6.04074 236.365 6.03318Z" fill="#2A468C"/>
<rect y="741" width="367.598" height="77" fill="#AC1CA2"/>
<rect y="691" width="367.598" height="27" fill="#2A468C"/>
<path d="M533.563 425.69C495.296 425.69 464.683 417.217 441.723 400.27C418.763 383.05 405.37 358.86 401.543 327.7H462.223C464.136 343.553 471.79 356.127 485.183 365.42C498.576 374.44 515.66 378.95 536.433 378.95C553.38 378.95 566.363 375.943 575.383 369.93C584.676 363.917 589.323 355.853 589.323 345.74C589.323 336.173 586.59 328.52 581.123 322.78C575.656 316.767 566.226 311.983 552.833 308.43L497.893 293.26C469.74 285.333 449.103 274.537 435.983 260.87C423.136 246.93 416.713 229.573 416.713 208.8C416.713 191.033 421.223 175.727 430.243 162.88C439.536 149.76 452.52 139.783 469.193 132.95C485.866 125.843 505.41 122.29 527.823 122.29C562.263 122.29 589.733 130.49 610.233 146.89C630.733 163.017 642.35 184.473 645.083 211.26H584.403C581.67 196.773 574.973 186.113 564.313 179.28C553.926 172.447 540.533 169.03 524.133 169.03C509.92 169.03 498.576 171.763 490.103 177.23C481.63 182.697 477.393 190.077 477.393 199.37C477.393 206.477 479.716 213.037 484.363 219.05C489.01 224.79 498.713 229.71 513.473 233.81L568.413 248.98C597.386 256.907 618.16 267.84 630.733 281.78C643.58 295.447 650.003 312.803 650.003 333.85C650.003 363.37 639.753 386.057 619.253 401.91C598.753 417.763 570.19 425.69 533.563 425.69ZM661.624 506.05L719.434 378.13L730.094 360.5L784.214 212.9H849.814L723.124 506.05H661.624ZM705.904 417.9L625.544 212.9H691.964L757.974 399.86L705.904 417.9ZM840.781 422V212.9H901.051V262.1H902.281V422H840.781ZM986.331 422V292.44C986.331 280.96 983.325 272.35 977.311 266.61C971.571 260.87 963.098 258 951.891 258C942.325 258 933.715 260.187 926.061 264.56C918.681 268.933 912.805 274.947 908.431 282.6C904.331 290.253 902.281 299.273 902.281 309.66L896.951 259.23C903.785 243.923 913.761 231.76 926.881 222.74C940.275 213.447 956.675 208.8 976.081 208.8C999.315 208.8 1017.08 215.36 1029.38 228.48C1041.68 241.327 1047.83 258.683 1047.83 280.55V422H986.331ZM1160.23 426.1C1137 426.1 1116.77 421.59 1099.55 412.57C1082.33 403.277 1068.94 390.43 1059.37 374.03C1050.08 357.63 1045.43 338.77 1045.43 317.45C1045.43 295.857 1050.08 276.997 1059.37 260.87C1068.94 244.47 1082.19 231.76 1099.14 222.74C1116.09 213.447 1135.77 208.8 1158.18 208.8C1179.77 208.8 1198.5 213.173 1214.35 221.92C1230.2 230.667 1242.5 242.83 1251.25 258.41C1260 273.99 1264.37 292.303 1264.37 313.35C1264.37 317.723 1264.23 321.823 1263.96 325.65C1263.69 329.203 1263.28 332.62 1262.73 335.9H1081.51V295.31H1213.12L1202.46 302.69C1202.46 285.743 1198.36 273.307 1190.16 265.38C1182.23 257.18 1171.3 253.08 1157.36 253.08C1141.23 253.08 1128.66 258.547 1119.64 269.48C1110.89 280.413 1106.52 296.813 1106.52 318.68C1106.52 340 1110.89 355.853 1119.64 366.24C1128.66 376.627 1142.05 381.82 1159.82 381.82C1169.66 381.82 1178.13 380.18 1185.24 376.9C1192.35 373.62 1197.68 368.29 1201.23 360.91H1259.04C1252.21 381.137 1240.45 397.127 1223.78 408.88C1207.38 420.36 1186.2 426.1 1160.23 426.1ZM1264.46 422V212.9H1324.73V262.1H1325.96V422H1264.46ZM1325.96 312.94L1320.63 263.33C1325.55 245.563 1333.61 232.033 1344.82 222.74C1356.03 213.447 1369.97 208.8 1386.64 208.8C1391.83 208.8 1395.66 209.347 1398.12 210.44V267.84C1396.75 267.293 1394.84 267.02 1392.38 267.02C1389.92 266.747 1386.91 266.61 1383.36 266.61C1363.68 266.61 1349.19 270.163 1339.9 277.27C1330.61 284.103 1325.96 295.993 1325.96 312.94ZM1488.16 510.15C1459.19 510.15 1435.55 504 1417.23 491.7C1399.19 479.4 1388.53 462.727 1385.25 441.68H1443.47C1445.66 446.873 1450.31 450.837 1457.41 453.57C1464.79 456.303 1474.09 457.67 1485.29 457.67C1503.88 457.67 1517.41 454.117 1525.88 447.01C1534.36 439.903 1538.59 428.833 1538.59 413.8V368.29L1541.87 369.11C1539.14 384.417 1531.21 396.58 1518.09 405.6C1504.97 414.347 1488.71 418.72 1469.3 418.72C1450.72 418.72 1434.45 414.483 1420.51 406.01C1406.85 397.263 1396.19 385.1 1388.53 369.52C1380.88 353.94 1377.05 335.627 1377.05 314.58C1377.05 293.26 1381.02 274.673 1388.94 258.82C1396.87 242.967 1407.94 230.667 1422.15 221.92C1436.64 213.173 1453.45 208.8 1472.58 208.8C1492.26 208.8 1508.25 213.447 1520.55 222.74C1533.13 232.033 1540.51 244.743 1542.69 260.87L1539.82 261.28V212.9H1600.09V412.98C1600.09 443.047 1590.12 466.69 1570.16 483.91C1550.21 501.403 1522.88 510.15 1488.16 510.15ZM1490.62 371.57C1505.11 371.57 1516.86 366.65 1525.88 356.81C1534.9 346.697 1539.41 332.347 1539.41 313.76C1539.41 295.173 1534.77 280.96 1525.47 271.12C1516.45 261.007 1504.56 255.95 1489.8 255.95C1475.59 255.95 1463.84 261.007 1454.54 271.12C1445.52 281.233 1441.01 295.583 1441.01 314.17C1441.01 332.757 1445.52 346.97 1454.54 356.81C1463.84 366.65 1475.86 371.57 1490.62 371.57ZM1627.13 506.05L1684.94 378.13L1695.6 360.5L1749.72 212.9H1815.32L1688.63 506.05H1627.13ZM1671.41 417.9L1591.05 212.9H1657.47L1723.48 399.86L1671.41 417.9Z" fill="#2A468C"/>
<path d="M629.274 737.137H608.587C608.21 734.46 607.438 732.083 606.273 730.005C605.108 727.895 603.613 726.101 601.786 724.621C599.96 723.141 597.85 722.007 595.457 721.22C593.096 720.433 590.53 720.039 587.759 720.039C582.753 720.039 578.392 721.283 574.676 723.771C570.961 726.227 568.08 729.816 566.033 734.539C563.986 739.231 562.963 744.93 562.963 751.636C562.963 758.532 563.986 764.326 566.033 769.017C568.111 773.709 571.008 777.251 574.723 779.644C578.439 782.037 582.737 783.233 587.617 783.233C590.357 783.233 592.891 782.871 595.221 782.147C597.583 781.423 599.677 780.368 601.503 778.983C603.329 777.566 604.841 775.85 606.037 773.835C607.265 771.819 608.115 769.521 608.587 766.939L629.274 767.033C628.739 771.473 627.401 775.755 625.26 779.88C623.15 783.973 620.301 787.641 616.711 790.885C613.153 794.096 608.902 796.647 603.959 798.536C599.047 800.394 593.49 801.322 587.287 801.322C578.659 801.322 570.945 799.37 564.144 795.466C557.374 791.562 552.022 785.91 548.086 778.51C544.181 771.111 542.229 762.153 542.229 751.636C542.229 741.088 544.213 732.115 548.18 724.715C552.147 717.316 557.532 711.68 564.333 707.807C571.134 703.902 578.785 701.95 587.287 701.95C592.891 701.95 598.087 702.737 602.873 704.312C607.69 705.886 611.957 708.185 615.672 711.207C619.387 714.199 622.41 717.867 624.74 722.212C627.102 726.557 628.613 731.532 629.274 737.137ZM658.793 800H636.878L670.27 703.273H696.624L729.969 800H708.054L683.825 725.376H683.069L658.793 800ZM657.423 761.98H709.188V777.944H657.423V761.98ZM822.516 703.273V800H804.852L762.77 739.12H762.062V800H741.611V703.273H759.559L801.31 764.105H802.16V703.273H822.516ZM924.758 737.137H904.071C903.693 734.46 902.922 732.083 901.757 730.005C900.592 727.895 899.096 726.101 897.27 724.621C895.443 723.141 893.334 722.007 890.941 721.22C888.579 720.433 886.013 720.039 883.242 720.039C878.236 720.039 873.875 721.283 870.16 723.771C866.444 726.227 863.563 729.816 861.517 734.539C859.47 739.231 858.447 744.93 858.447 751.636C858.447 758.532 859.47 764.326 861.517 769.017C863.595 773.709 866.491 777.251 870.207 779.644C873.922 782.037 878.22 783.233 883.101 783.233C885.84 783.233 888.375 782.871 890.705 782.147C893.066 781.423 895.16 780.368 896.986 778.983C898.813 777.566 900.324 775.85 901.52 773.835C902.748 771.819 903.599 769.521 904.071 766.939L924.758 767.033C924.222 771.473 922.884 775.755 920.743 779.88C918.633 783.973 915.784 787.641 912.194 790.885C908.636 794.096 904.386 796.647 899.442 798.536C894.53 800.394 888.973 801.322 882.77 801.322C874.143 801.322 866.428 799.37 859.627 795.466C852.858 791.562 847.505 785.91 843.569 778.51C839.665 771.111 837.713 762.153 837.713 751.636C837.713 741.088 839.696 732.115 843.664 724.715C847.631 717.316 853.015 711.68 859.816 707.807C866.617 703.902 874.269 701.95 882.77 701.95C888.375 701.95 893.57 702.737 898.356 704.312C903.173 705.886 907.44 708.185 911.155 711.207C914.871 714.199 917.894 717.867 920.224 722.212C922.585 726.557 924.096 731.532 924.758 737.137ZM939.423 800V703.273H1004.6V720.134H959.873V743.182H1001.25V760.043H959.873V783.139H1004.79V800H939.423ZM1020.86 800V703.273H1059.02C1066.33 703.273 1072.56 704.579 1077.72 707.193C1082.92 709.775 1086.87 713.443 1089.58 718.197C1092.32 722.92 1093.69 728.478 1093.69 734.87C1093.69 741.293 1092.3 746.819 1089.53 751.447C1086.76 756.045 1082.75 759.571 1077.49 762.027C1072.26 764.483 1065.93 765.711 1058.5 765.711H1032.95V749.275H1055.2C1059.1 749.275 1062.34 748.74 1064.92 747.669C1067.51 746.598 1069.43 744.993 1070.69 742.852C1071.98 740.71 1072.62 738.05 1072.62 734.87C1072.62 731.658 1071.98 728.95 1070.69 726.746C1069.43 724.542 1067.49 722.873 1064.88 721.74C1062.3 720.575 1059.04 719.992 1055.1 719.992H1041.31V800H1020.86ZM1073.1 755.982L1097.14 800H1074.56L1051.04 755.982H1073.1ZM1159.37 703.273V800H1138.92V703.273H1159.37ZM1257.1 703.273V800H1239.44L1197.36 739.12H1196.65V800H1176.2V703.273H1194.15L1235.9 764.105H1236.75V703.273H1257.1ZM1326.47 731.091C1326.1 727.281 1324.47 724.322 1321.61 722.212C1318.74 720.102 1314.85 719.048 1309.94 719.048C1306.61 719.048 1303.79 719.52 1301.49 720.464C1299.19 721.378 1297.43 722.653 1296.2 724.29C1295 725.927 1294.4 727.785 1294.4 729.863C1294.34 731.595 1294.7 733.106 1295.49 734.397C1296.31 735.688 1297.43 736.806 1298.84 737.751C1300.26 738.664 1301.9 739.467 1303.76 740.159C1305.61 740.821 1307.6 741.387 1309.71 741.86L1318.4 743.938C1322.62 744.882 1326.49 746.142 1330.02 747.716C1333.54 749.291 1336.6 751.227 1339.18 753.526C1341.76 755.824 1343.76 758.532 1345.18 761.649C1346.62 764.766 1347.36 768.34 1347.4 772.37C1347.36 778.29 1345.85 783.422 1342.86 787.767C1339.9 792.081 1335.62 795.434 1330.02 797.827C1324.44 800.189 1317.72 801.37 1309.85 801.37C1302.04 801.37 1295.24 800.173 1289.44 797.78C1283.68 795.387 1279.18 791.845 1275.94 787.153C1272.73 782.43 1271.04 776.59 1270.88 769.631H1290.67C1290.89 772.874 1291.82 775.582 1293.46 777.755C1295.13 779.896 1297.35 781.517 1300.12 782.619C1302.92 783.69 1306.09 784.225 1309.61 784.225C1313.08 784.225 1316.08 783.721 1318.63 782.714C1321.22 781.706 1323.21 780.305 1324.63 778.51C1326.05 776.716 1326.76 774.653 1326.76 772.323C1326.76 770.151 1326.11 768.324 1324.82 766.844C1323.56 765.365 1321.7 764.105 1319.25 763.066C1316.82 762.027 1313.85 761.082 1310.32 760.232L1299.79 757.587C1291.63 755.604 1285.19 752.502 1280.47 748.283C1275.75 744.064 1273.4 738.38 1273.43 731.233C1273.4 725.376 1274.96 720.26 1278.11 715.883C1281.29 711.507 1285.65 708.09 1291.19 705.634C1296.73 703.178 1303.03 701.95 1310.08 701.95C1317.26 701.95 1323.53 703.178 1328.88 705.634C1334.27 708.09 1338.45 711.507 1341.45 715.883C1344.44 720.26 1345.98 725.329 1346.07 731.091H1326.47ZM1357.47 720.134V703.273H1436.91V720.134H1407.3V800H1387.08V720.134H1357.47ZM1470.44 703.273V800H1449.99V703.273H1470.44ZM1483.58 720.134V703.273H1563.03V720.134H1533.41V800H1513.2V720.134H1483.58ZM1635.85 703.273H1656.3V766.089C1656.3 773.142 1654.62 779.313 1651.25 784.603C1647.91 789.893 1643.24 794.018 1637.22 796.977C1631.21 799.906 1624.2 801.37 1616.21 801.37C1608.18 801.37 1601.16 799.906 1595.14 796.977C1589.13 794.018 1584.45 789.893 1581.11 784.603C1577.78 779.313 1576.11 773.142 1576.11 766.089V703.273H1596.56V764.341C1596.56 768.025 1597.36 771.3 1598.97 774.165C1600.6 777.03 1602.9 779.282 1605.86 780.919C1608.82 782.556 1612.27 783.375 1616.21 783.375C1620.17 783.375 1623.62 782.556 1626.55 780.919C1629.51 779.282 1631.79 777.03 1633.4 774.165C1635.04 771.3 1635.85 768.025 1635.85 764.341V703.273ZM1669.45 720.134V703.273H1748.89V720.134H1719.27V800H1699.06V720.134H1669.45ZM1761.97 800V703.273H1827.15V720.134H1782.42V743.182H1823.79V760.043H1782.42V783.139H1827.34V800H1761.97Z" fill="#AC1CA2"/>
<path d="M458.289 801.417C451.614 801.417 445.851 800.22 441.002 797.827C436.154 795.434 432.422 792.191 429.809 788.098C427.227 783.973 425.936 779.376 425.936 774.307C425.936 770.528 426.692 767.175 428.203 764.247C429.714 761.319 431.824 758.626 434.532 756.17C437.24 753.683 440.388 751.211 443.978 748.755L462.728 736.428C465.153 734.885 466.932 733.264 468.065 731.564C469.199 729.832 469.766 727.958 469.766 725.943C469.766 724.022 468.994 722.243 467.451 720.606C465.908 718.969 463.72 718.166 460.886 718.197C458.997 718.197 457.36 718.623 455.974 719.473C454.589 720.291 453.503 721.378 452.716 722.732C451.96 724.054 451.582 725.534 451.582 727.171C451.582 729.186 452.149 731.233 453.282 733.311C454.416 735.389 455.927 737.593 457.816 739.923C459.706 742.222 461.768 744.709 464.004 747.386L509.864 800H488.894L450.637 757.398C448.118 754.533 445.6 751.542 443.081 748.425C440.593 745.276 438.515 741.938 436.846 738.412C435.177 734.854 434.343 730.997 434.343 726.841C434.343 722.149 435.429 717.93 437.602 714.183C439.806 710.436 442.892 707.476 446.859 705.304C450.826 703.1 455.455 701.998 460.745 701.998C465.908 701.998 470.364 703.052 474.111 705.162C477.889 707.24 480.786 710.011 482.801 713.474C484.848 716.906 485.871 720.685 485.871 724.81C485.871 729.375 484.738 733.516 482.471 737.231C480.235 740.915 477.086 744.221 473.024 747.15L453.282 761.366C450.606 763.318 448.622 765.317 447.331 767.364C446.072 769.379 445.442 771.316 445.442 773.173C445.442 775.472 446.009 777.534 447.142 779.36C448.276 781.187 449.882 782.635 451.96 783.706C454.038 784.745 456.478 785.264 459.281 785.264C462.681 785.264 466.034 784.493 469.341 782.95C472.678 781.376 475.701 779.156 478.409 776.29C481.148 773.394 483.336 769.962 484.974 765.994C486.611 762.027 487.43 757.635 487.43 752.817H504.102C504.102 758.737 503.456 764.074 502.165 768.828C500.875 773.551 499.08 777.676 496.781 781.202C494.483 784.697 491.854 787.563 488.894 789.798C487.949 790.397 487.036 790.963 486.154 791.499C485.273 792.034 484.36 792.601 483.415 793.199C479.826 796.096 475.811 798.19 471.371 799.48C466.963 800.771 462.602 801.417 458.289 801.417Z" fill="#2A468C"/>
<path d="M465.599 606.261C465.327 603.511 464.156 601.375 462.088 599.852C460.02 598.33 457.213 597.568 453.668 597.568C451.259 597.568 449.224 597.909 447.565 598.591C445.906 599.25 444.634 600.17 443.747 601.352C442.884 602.534 442.452 603.875 442.452 605.375C442.406 606.625 442.668 607.716 443.236 608.648C443.827 609.58 444.634 610.386 445.656 611.068C446.679 611.727 447.861 612.307 449.202 612.807C450.543 613.284 451.974 613.693 453.497 614.034L459.77 615.534C462.815 616.216 465.611 617.125 468.156 618.261C470.702 619.398 472.906 620.795 474.77 622.455C476.634 624.114 478.077 626.068 479.099 628.318C480.145 630.568 480.679 633.148 480.702 636.057C480.679 640.33 479.588 644.034 477.429 647.17C475.293 650.284 472.202 652.705 468.156 654.432C464.134 656.136 459.281 656.989 453.599 656.989C447.963 656.989 443.054 656.125 438.872 654.398C434.713 652.67 431.463 650.114 429.122 646.727C426.804 643.318 425.588 639.102 425.474 634.08H439.759C439.918 636.42 440.588 638.375 441.77 639.943C442.974 641.489 444.577 642.659 446.577 643.455C448.599 644.227 450.884 644.614 453.429 644.614C455.929 644.614 458.099 644.25 459.94 643.523C461.804 642.795 463.247 641.784 464.27 640.489C465.293 639.193 465.804 637.705 465.804 636.023C465.804 634.455 465.338 633.136 464.406 632.068C463.497 631 462.156 630.091 460.384 629.341C458.634 628.591 456.486 627.909 453.94 627.295L446.338 625.386C440.452 623.955 435.804 621.716 432.395 618.67C428.986 615.625 427.293 611.523 427.315 606.364C427.293 602.136 428.418 598.443 430.69 595.284C432.986 592.125 436.134 589.659 440.134 587.886C444.134 586.114 448.679 585.227 453.77 585.227C458.952 585.227 463.474 586.114 467.338 587.886C471.224 589.659 474.247 592.125 476.406 595.284C478.565 598.443 479.679 602.102 479.747 606.261H465.599ZM533.756 586.182H548.517V631.523C548.517 636.614 547.301 641.068 544.869 644.886C542.46 648.705 539.085 651.682 534.744 653.818C530.403 655.932 525.347 656.989 519.574 656.989C513.778 656.989 508.71 655.932 504.369 653.818C500.028 651.682 496.653 648.705 494.244 644.886C491.835 641.068 490.631 636.614 490.631 631.523V586.182H505.392V630.261C505.392 632.92 505.972 635.284 507.131 637.352C508.313 639.42 509.972 641.045 512.108 642.227C514.244 643.409 516.733 644 519.574 644C522.438 644 524.926 643.409 527.04 642.227C529.176 641.045 530.824 639.42 531.983 637.352C533.165 635.284 533.756 632.92 533.756 630.261V586.182ZM560.662 656V586.182H588.207C593.503 586.182 598.014 587.193 601.741 589.216C605.469 591.216 608.31 594 610.264 597.568C612.241 601.114 613.23 605.205 613.23 609.841C613.23 614.477 612.23 618.568 610.23 622.114C608.23 625.659 605.332 628.42 601.537 630.398C597.764 632.375 593.196 633.364 587.832 633.364H570.276V621.534H585.446C588.287 621.534 590.628 621.045 592.469 620.068C594.332 619.068 595.719 617.693 596.628 615.943C597.56 614.17 598.026 612.136 598.026 609.841C598.026 607.523 597.56 605.5 596.628 603.773C595.719 602.023 594.332 600.67 592.469 599.716C590.605 598.739 588.241 598.25 585.378 598.25H575.423V656H560.662ZM622.818 656V586.182H669.864V598.352H637.58V614.989H667.443V627.159H637.58V643.83H670V656H622.818ZM681.599 656V586.182H709.145C714.418 586.182 718.918 587.125 722.645 589.011C726.395 590.875 729.247 593.523 731.202 596.955C733.179 600.364 734.168 604.375 734.168 608.989C734.168 613.625 733.168 617.614 731.168 620.955C729.168 624.273 726.27 626.818 722.474 628.591C718.702 630.364 714.134 631.25 708.77 631.25H690.327V619.386H706.384C709.202 619.386 711.543 619 713.406 618.227C715.27 617.455 716.656 616.295 717.565 614.75C718.497 613.205 718.963 611.284 718.963 608.989C718.963 606.67 718.497 604.716 717.565 603.125C716.656 601.534 715.259 600.33 713.372 599.511C711.509 598.67 709.156 598.25 706.315 598.25H696.361V656H681.599ZM719.304 624.227L736.656 656H720.361L703.384 624.227H719.304ZM804.693 606.261C804.42 603.511 803.25 601.375 801.182 599.852C799.114 598.33 796.307 597.568 792.761 597.568C790.352 597.568 788.318 597.909 786.659 598.591C785 599.25 783.727 600.17 782.841 601.352C781.977 602.534 781.545 603.875 781.545 605.375C781.5 606.625 781.761 607.716 782.33 608.648C782.92 609.58 783.727 610.386 784.75 611.068C785.773 611.727 786.955 612.307 788.295 612.807C789.636 613.284 791.068 613.693 792.591 614.034L798.864 615.534C801.909 616.216 804.705 617.125 807.25 618.261C809.795 619.398 812 620.795 813.864 622.455C815.727 624.114 817.17 626.068 818.193 628.318C819.239 630.568 819.773 633.148 819.795 636.057C819.773 640.33 818.682 644.034 816.523 647.17C814.386 650.284 811.295 652.705 807.25 654.432C803.227 656.136 798.375 656.989 792.693 656.989C787.057 656.989 782.148 656.125 777.966 654.398C773.807 652.67 770.557 650.114 768.216 646.727C765.898 643.318 764.682 639.102 764.568 634.08H778.852C779.011 636.42 779.682 638.375 780.864 639.943C782.068 641.489 783.67 642.659 785.67 643.455C787.693 644.227 789.977 644.614 792.523 644.614C795.023 644.614 797.193 644.25 799.034 643.523C800.898 642.795 802.341 641.784 803.364 640.489C804.386 639.193 804.898 637.705 804.898 636.023C804.898 634.455 804.432 633.136 803.5 632.068C802.591 631 801.25 630.091 799.477 629.341C797.727 628.591 795.58 627.909 793.034 627.295L785.432 625.386C779.545 623.955 774.898 621.716 771.489 618.67C768.08 615.625 766.386 611.523 766.409 606.364C766.386 602.136 767.511 598.443 769.784 595.284C772.08 592.125 775.227 589.659 779.227 587.886C783.227 586.114 787.773 585.227 792.864 585.227C798.045 585.227 802.568 586.114 806.432 587.886C810.318 589.659 813.341 592.125 815.5 595.284C817.659 598.443 818.773 602.102 818.841 606.261H804.693ZM829.724 656V586.182H857.27C862.565 586.182 867.077 587.193 870.804 589.216C874.531 591.216 877.372 594 879.327 597.568C881.304 601.114 882.293 605.205 882.293 609.841C882.293 614.477 881.293 618.568 879.293 622.114C877.293 625.659 874.395 628.42 870.599 630.398C866.827 632.375 862.259 633.364 856.895 633.364H839.338V621.534H854.509C857.349 621.534 859.69 621.045 861.531 620.068C863.395 619.068 864.781 617.693 865.69 615.943C866.622 614.17 867.088 612.136 867.088 609.841C867.088 607.523 866.622 605.5 865.69 603.773C864.781 602.023 863.395 600.67 861.531 599.716C859.668 598.739 857.304 598.25 854.44 598.25H844.486V656H829.724ZM891.881 656V586.182H938.926V598.352H906.642V614.989H936.506V627.159H906.642V643.83H939.062V656H891.881ZM1012.26 610.625H997.332C997.06 608.693 996.503 606.977 995.662 605.477C994.821 603.955 993.741 602.659 992.423 601.591C991.105 600.523 989.582 599.705 987.855 599.136C986.151 598.568 984.298 598.284 982.298 598.284C978.685 598.284 975.537 599.182 972.855 600.977C970.173 602.75 968.094 605.341 966.616 608.75C965.139 612.136 964.401 616.25 964.401 621.091C964.401 626.068 965.139 630.25 966.616 633.636C968.116 637.023 970.207 639.58 972.889 641.307C975.571 643.034 978.673 643.898 982.196 643.898C984.173 643.898 986.003 643.636 987.685 643.114C989.389 642.591 990.901 641.83 992.219 640.83C993.537 639.807 994.628 638.568 995.491 637.114C996.378 635.659 996.991 634 997.332 632.136L1012.26 632.205C1011.88 635.409 1010.91 638.5 1009.37 641.477C1007.84 644.432 1005.79 647.08 1003.2 649.42C1000.63 651.739 997.56 653.58 993.991 654.943C990.446 656.284 986.435 656.955 981.957 656.955C975.73 656.955 970.162 655.545 965.253 652.727C960.366 649.909 956.503 645.83 953.662 640.489C950.844 635.148 949.435 628.682 949.435 621.091C949.435 613.477 950.866 607 953.73 601.659C956.594 596.318 960.48 592.25 965.389 589.455C970.298 586.636 975.821 585.227 981.957 585.227C986.003 585.227 989.753 585.795 993.207 586.932C996.685 588.068 999.764 589.727 1002.45 591.909C1005.13 594.068 1007.31 596.716 1008.99 599.852C1010.7 602.989 1011.79 606.58 1012.26 610.625ZM1037.61 586.182V656H1022.85V586.182H1037.61ZM1061.79 656H1045.97L1070.07 586.182H1089.1L1113.16 656H1097.35L1079.86 602.136H1079.31L1061.79 656ZM1060.8 628.557H1098.16V640.08H1060.8V628.557ZM1121.57 656V586.182H1136.33V643.83H1166.26V656H1121.57ZM1190.8 586.182V656H1176.04V586.182H1190.8ZM1200.28 598.352V586.182H1257.62V598.352H1236.25V656H1221.66V598.352H1200.28ZM1262.98 586.182H1279.51L1295.43 616.25H1296.11L1312.03 586.182H1328.57L1303.1 631.318V656H1288.44V631.318L1262.98 586.182ZM1358.85 656V586.182H1373.61V614.989H1403.58V586.182H1418.3V656H1403.58V627.159H1373.61V656H1358.85ZM1494.63 621.091C1494.63 628.705 1493.19 635.182 1490.3 640.523C1487.44 645.864 1483.53 649.943 1478.58 652.761C1473.64 655.557 1468.1 656.955 1461.94 656.955C1455.74 656.955 1450.17 655.545 1445.24 652.727C1440.3 649.909 1436.41 645.83 1433.54 640.489C1430.68 635.148 1429.25 628.682 1429.25 621.091C1429.25 613.477 1430.68 607 1433.54 601.659C1436.41 596.318 1440.3 592.25 1445.24 589.455C1450.17 586.636 1455.74 585.227 1461.94 585.227C1468.1 585.227 1473.64 586.636 1478.58 589.455C1483.53 592.25 1487.44 596.318 1490.3 601.659C1493.19 607 1494.63 613.477 1494.63 621.091ZM1479.67 621.091C1479.67 616.159 1478.93 612 1477.45 608.614C1476 605.227 1473.94 602.659 1471.28 600.909C1468.62 599.159 1465.51 598.284 1461.94 598.284C1458.37 598.284 1455.26 599.159 1452.6 600.909C1449.94 602.659 1447.87 605.227 1446.39 608.614C1444.94 612 1444.21 616.159 1444.21 621.091C1444.21 626.023 1444.94 630.182 1446.39 633.568C1447.87 636.955 1449.94 639.523 1452.6 641.273C1455.26 643.023 1458.37 643.898 1461.94 643.898C1465.51 643.898 1468.62 643.023 1471.28 641.273C1473.94 639.523 1476 636.955 1477.45 633.568C1478.93 630.182 1479.67 626.023 1479.67 621.091ZM1543.44 606.261C1543.17 603.511 1542 601.375 1539.93 599.852C1537.86 598.33 1535.06 597.568 1531.51 597.568C1529.1 597.568 1527.07 597.909 1525.41 598.591C1523.75 599.25 1522.48 600.17 1521.59 601.352C1520.73 602.534 1520.3 603.875 1520.3 605.375C1520.25 606.625 1520.51 607.716 1521.08 608.648C1521.67 609.58 1522.48 610.386 1523.5 611.068C1524.52 611.727 1525.7 612.307 1527.05 612.807C1528.39 613.284 1529.82 613.693 1531.34 614.034L1537.61 615.534C1540.66 616.216 1543.45 617.125 1546 618.261C1548.55 619.398 1550.75 620.795 1552.61 622.455C1554.48 624.114 1555.92 626.068 1556.94 628.318C1557.99 630.568 1558.52 633.148 1558.55 636.057C1558.52 640.33 1557.43 644.034 1555.27 647.17C1553.14 650.284 1550.05 652.705 1546 654.432C1541.98 656.136 1537.13 656.989 1531.44 656.989C1525.81 656.989 1520.9 656.125 1516.72 654.398C1512.56 652.67 1509.31 650.114 1506.97 646.727C1504.65 643.318 1503.43 639.102 1503.32 634.08H1517.6C1517.76 636.42 1518.43 638.375 1519.61 639.943C1520.82 641.489 1522.42 642.659 1524.42 643.455C1526.44 644.227 1528.73 644.614 1531.27 644.614C1533.77 644.614 1535.94 644.25 1537.78 643.523C1539.65 642.795 1541.09 641.784 1542.11 640.489C1543.14 639.193 1543.65 637.705 1543.65 636.023C1543.65 634.455 1543.18 633.136 1542.25 632.068C1541.34 631 1540 630.091 1538.23 629.341C1536.48 628.591 1534.33 627.909 1531.78 627.295L1524.18 625.386C1518.3 623.955 1513.65 621.716 1510.24 618.67C1506.83 615.625 1505.14 611.523 1505.16 606.364C1505.14 602.136 1506.26 598.443 1508.53 595.284C1510.83 592.125 1513.98 589.659 1517.98 587.886C1521.98 586.114 1526.52 585.227 1531.61 585.227C1536.8 585.227 1541.32 586.114 1545.18 587.886C1549.07 589.659 1552.09 592.125 1554.25 595.284C1556.41 598.443 1557.52 602.102 1557.59 606.261H1543.44ZM1568.47 656V586.182H1596.02C1601.32 586.182 1605.83 587.193 1609.55 589.216C1613.28 591.216 1616.12 594 1618.08 597.568C1620.05 601.114 1621.04 605.205 1621.04 609.841C1621.04 614.477 1620.04 618.568 1618.04 622.114C1616.04 625.659 1613.14 628.42 1609.35 630.398C1605.58 632.375 1601.01 633.364 1595.64 633.364H1578.09V621.534H1593.26C1596.1 621.534 1598.44 621.045 1600.28 620.068C1602.14 619.068 1603.53 617.693 1604.44 615.943C1605.37 614.17 1605.84 612.136 1605.84 609.841C1605.84 607.523 1605.37 605.5 1604.44 603.773C1603.53 602.023 1602.14 600.67 1600.28 599.716C1598.42 598.739 1596.05 598.25 1593.19 598.25H1583.24V656H1568.47ZM1645.39 586.182V656H1630.63V586.182H1645.39ZM1654.88 598.352V586.182H1712.22V598.352H1690.84V656H1676.25V598.352H1654.88ZM1725.16 656H1709.35L1733.45 586.182H1752.47L1776.54 656H1760.72L1743.23 602.136H1742.69L1725.16 656ZM1724.18 628.557H1761.54V640.08H1724.18V628.557ZM1784.94 656V586.182H1799.7V643.83H1829.64V656H1784.94Z" fill="#2A468C"/>
<rect y="839" width="1835" height="100" fill="#2A468C"/>
<path d="M1325.74 918.8C1321.58 918.8 1317.74 918.08 1314.22 916.64C1310.7 915.147 1307.63 913.067 1305.02 910.4C1302.46 907.733 1300.46 904.587 1299.02 900.96C1297.58 897.28 1296.86 893.28 1296.86 888.96C1296.86 884.64 1297.55 880.693 1298.94 877.12C1300.38 873.547 1302.38 870.453 1304.94 867.84C1307.55 865.173 1310.62 863.147 1314.14 861.76C1317.66 860.32 1321.53 859.6 1325.74 859.6C1330.49 859.6 1334.75 860.533 1338.54 862.4C1342.38 864.213 1345.5 866.8 1347.9 870.16C1350.35 873.467 1351.85 877.36 1352.38 881.84H1340.38C1339.69 877.733 1338.01 874.64 1335.34 872.56C1332.67 870.427 1329.5 869.36 1325.82 869.36C1322.57 869.36 1319.69 870.133 1317.18 871.68C1314.73 873.227 1312.81 875.467 1311.42 878.4C1310.03 881.28 1309.34 884.773 1309.34 888.88C1309.34 893.04 1310.03 896.64 1311.42 899.68C1312.86 902.667 1314.83 904.987 1317.34 906.64C1319.85 908.24 1322.73 909.04 1325.98 909.04C1329.45 909.04 1332.51 908 1335.18 905.92C1337.85 903.84 1339.58 900.747 1340.38 896.64H1352.54C1351.85 901.12 1350.27 905.04 1347.82 908.4C1345.37 911.707 1342.25 914.267 1338.46 916.08C1334.67 917.893 1330.43 918.8 1325.74 918.8ZM1353.33 918L1373.97 860.4H1384.53L1365.57 918H1353.33ZM1395.57 918L1376.69 860.4H1387.73L1408.37 918H1395.57ZM1364.21 895.68H1396.53V905.28H1364.21V895.68ZM1412.98 918V860.4H1438.74C1442.9 860.4 1446.53 861.12 1449.62 862.56C1452.72 863.947 1455.12 865.92 1456.82 868.48C1458.53 871.04 1459.38 874.027 1459.38 877.44C1459.38 880.8 1458.53 883.76 1456.82 886.32C1455.12 888.827 1452.72 890.8 1449.62 892.24C1446.53 893.627 1442.9 894.32 1438.74 894.32H1422.74V885.28H1438.42C1441.36 885.28 1443.6 884.613 1445.14 883.28C1446.74 881.893 1447.54 879.973 1447.54 877.52C1447.54 875.013 1446.77 873.12 1445.22 871.84C1443.68 870.507 1441.41 869.84 1438.42 869.84H1425.3V918H1412.98ZM1445.46 918L1422.34 888.08H1435.38L1462.1 918H1445.46ZM1466.74 918V860.4H1479.06V918H1466.74ZM1472.5 918V908.56H1509.62V918H1472.5ZM1472.5 893.2V883.92H1506.82V893.2H1472.5ZM1472.5 869.84V860.4H1508.66V869.84H1472.5ZM1532.05 918V860.4H1544.37V918H1532.05ZM1576.04 918.72C1568.58 918.72 1562.6 917.067 1558.12 913.76C1553.64 910.4 1551.03 905.68 1550.28 899.6H1562.12C1562.5 902.693 1563.99 905.147 1566.6 906.96C1569.22 908.72 1572.55 909.6 1576.6 909.6C1579.91 909.6 1582.44 909.013 1584.2 907.84C1586.02 906.667 1586.92 905.093 1586.92 903.12C1586.92 901.253 1586.39 899.76 1585.32 898.64C1584.26 897.467 1582.42 896.533 1579.8 895.84L1569.08 892.88C1563.59 891.333 1559.56 889.227 1557 886.56C1554.5 883.84 1553.24 880.453 1553.24 876.4C1553.24 872.933 1554.12 869.947 1555.88 867.44C1557.7 864.88 1560.23 862.933 1563.48 861.6C1566.74 860.213 1570.55 859.52 1574.92 859.52C1581.64 859.52 1587 861.12 1591 864.32C1595 867.467 1597.27 871.653 1597.8 876.88H1585.96C1585.43 874.053 1584.12 871.973 1582.04 870.64C1580.02 869.307 1577.4 868.64 1574.2 868.64C1571.43 868.64 1569.22 869.173 1567.56 870.24C1565.91 871.307 1565.08 872.747 1565.08 874.56C1565.08 875.947 1565.54 877.227 1566.44 878.4C1567.35 879.52 1569.24 880.48 1572.12 881.28L1582.84 884.24C1588.5 885.787 1592.55 887.92 1595 890.64C1597.51 893.307 1598.76 896.693 1598.76 900.8C1598.76 906.56 1596.76 910.987 1592.76 914.08C1588.76 917.173 1583.19 918.72 1576.04 918.72ZM1619.79 918V860.4H1632.11V918H1619.79ZM1657.07 918V860.4H1669.39V918H1657.07ZM1625.55 883.28H1662.67V892.72H1625.55V883.28ZM1677.36 918V860.4H1689.68V918H1677.36ZM1683.12 918V908.56H1720.24V918H1683.12ZM1683.12 893.2V883.92H1717.44V893.2H1683.12ZM1683.12 869.84V860.4H1719.28V869.84H1683.12ZM1726.58 918V860.4H1752.34C1756.5 860.4 1760.12 861.12 1763.22 862.56C1766.31 863.947 1768.71 865.92 1770.42 868.48C1772.12 871.04 1772.98 874.027 1772.98 877.44C1772.98 880.8 1772.12 883.76 1770.42 886.32C1768.71 888.827 1766.31 890.8 1763.22 892.24C1760.12 893.627 1756.5 894.32 1752.34 894.32H1736.34V885.28H1752.02C1754.95 885.28 1757.19 884.613 1758.74 883.28C1760.34 881.893 1761.14 879.973 1761.14 877.52C1761.14 875.013 1760.36 873.12 1758.82 871.84C1757.27 870.507 1755 869.84 1752.02 869.84H1738.9V918H1726.58ZM1759.06 918L1735.94 888.08H1748.98L1775.7 918H1759.06ZM1780.33 918V860.4H1792.65V918H1780.33ZM1786.09 918V908.56H1823.21V918H1786.09ZM1786.09 893.2V883.92H1820.41V893.2H1786.09ZM1786.09 869.84V860.4H1822.25V869.84H1786.09Z" fill="white"/>
</svg>
